<?xml version="1.0" encoding="UTF-8"?>
<svg version="1.1" xmlns="http://www.w3.org/2000/svg" width="1024" height="1024">
<path d="M0 0 C1.43279297 1.21623047 1.43279297 1.21623047 2.89453125 2.45703125 C14.85475583 12.82230176 23.72889491 25.00232192 31 39 C31.54398438 40.02351563 32.08796875 41.04703125 32.6484375 42.1015625 C45.05874575 66.9851755 46.44994668 96.09746598 38.05004883 122.37255859 C31.35095145 142.26362231 18.86664084 157.62205085 4.16015625 172.203125 C2.94418527 173.41857593 1.72873575 174.63454874 0.51377869 175.85101318 C-2.00866534 178.37336834 -4.53611635 180.89055381 -7.06762695 183.40380859 C-10.316736 186.63000041 -13.55440208 189.86740317 -16.78871822 193.10841751 C-19.28553009 195.60855947 -21.7872794 198.10371061 -24.29068184 200.59725189 C-25.48776041 201.79047887 -26.68349054 202.98506021 -27.87785149 204.18100739 C-29.53600669 205.8395314 -31.20047279 207.49143869 -32.86694336 209.14160156 C-33.35990402 209.63703964 -33.85286469 210.13247772 -34.36076355 210.64292908 C-37.77122974 214 -37.77122974 214 -40 214 C-40.22429687 214.55042969 -40.44859375 215.10085938 -40.6796875 215.66796875 C-42.41093976 218.72583148 -44.62237725 220.84821826 -47.125 223.3125 C-47.61274902 223.79452881 -48.10049805 224.27655762 -48.60302734 224.77319336 C-52.12102121 228.22147264 -55.75629498 231.50270336 -59.5390625 234.66015625 C-61.12690811 235.95639013 -61.12690811 235.95639013 -62 238 C-62.66 238 -63.32 238 -64 238 C-64 238.66 -64 239.32 -64 240 C-65.27099609 241.24975586 -65.27099609 241.24975586 -67.1484375 242.77734375 C-72.98570447 247.74656335 -78.31448025 253.20316455 -83.71307373 258.63790894 C-85.66256755 260.6003164 -87.61529925 262.55945154 -89.56884766 264.51782227 C-93.71539909 268.67572975 -97.85799633 272.83756277 -102 277 C-106.80466079 281.82836341 -111.61098393 286.65504776 -116.42156982 291.47750854 C-118.33342479 293.39578514 -120.24221206 295.31707743 -122.15087891 297.23852539 C-132.67421587 307.80526945 -132.67421587 307.80526945 -138.38720703 312.5793457 C-140.22303491 314.19646384 -141.84986675 315.94518945 -143.5 317.75 C-162.77956395 337.1804803 -191.74329234 347.47010491 -218.68066406 348.00244141 C-247.95130067 347.97163021 -275.91651807 336.19074471 -296.75 315.75 C-316.6009129 295.51768259 -327.70970582 269.30582853 -329 241 C-329.04125 240.21882813 -329.0825 239.43765625 -329.125 238.6328125 C-329.95263626 207.90681634 -317.19483209 178.71509476 -297 156 C-294.4290655 153.35070611 -291.82247527 150.75276586 -289.1640625 148.19140625 C-286.97111701 146.07971423 -286.97111701 146.07971423 -285.3359375 143.71484375 C-284.89507812 143.14894531 -284.45421875 142.58304688 -284 142 C-283.34 142 -282.68 142 -282 142 C-281.74593636 141.42075807 -281.49187271 140.84151613 -281.23011017 140.24472141 C-279.86147255 137.74721326 -278.33569887 136.09240884 -276.3182373 134.0844574 C-275.55269028 133.3176062 -274.78714325 132.550755 -273.99839783 131.76066589 C-272.73752098 130.51293144 -272.73752098 130.51293144 -271.45117188 129.23999023 C-270.56651749 128.35665009 -269.6818631 127.47330994 -268.770401 126.5632019 C-266.84809034 124.64515572 -264.92406756 122.72903393 -262.99684143 120.81594658 C-259.94982651 117.79121636 -256.90993249 114.75939682 -253.87097168 111.72657776 C-249.06417385 106.93115568 -244.25272582 102.14043073 -239.43922949 97.35173327 C-230.81697646 88.77382428 -222.20030288 80.19031943 -213.58883524 71.60158306 C-210.56630935 68.58746659 -207.5409979 65.57618212 -204.5134201 62.56714046 C-202.19000249 60.25685966 -199.86970548 57.94344751 -197.54882812 55.63061523 C-196.70824356 54.79676804 -195.867659 53.96292084 -195.00160217 53.10380554 C-194.23605515 52.33977417 -193.47050812 51.5757428 -192.6817627 50.78855896 C-191.68182659 49.793902 -191.68182659 49.793902 -190.66168976 48.77915096 C-188.81489205 46.89843067 -188.81489205 46.89843067 -187 44 C-186.34 44 -185.68 44 -185 44 C-184.67 43.01 -184.34 42.02 -184 41 C-183.34 41 -182.68 41 -182 41 C-182 40.34 -182 39.68 -182 39 C-181.34 39 -180.68 39 -180 39 C-179.67 38.01 -179.34 37.02 -179 36 C-176.5625 33.3125 -176.5625 33.3125 -174 31 C-173.34 31 -172.68 31 -172 31 C-171.6596875 30.17242187 -171.6596875 30.17242187 -171.3125 29.328125 C-169.61274074 26.31307583 -167.45195184 24.18769631 -165 21.75 C-164.113125 20.85796875 -163.22625 19.9659375 -162.3125 19.046875 C-160 17 -160 17 -158 17 C-157.7628125 16.43796875 -157.525625 15.8759375 -157.28125 15.296875 C-151.60131522 5.11455289 -139.62598812 -2.74310772 -130 -9 C-129.34 -9.66 -128.68 -10.32 -128 -11 C-86.13753542 -33.7351084 -36.63968361 -32.03815349 0 0 Z M-224.8828125 115.72265625 C-225.62273437 116.49480469 -226.36265625 117.26695312 -227.125 118.0625 C-229.82449192 120.87246934 -232.5767968 123.52106088 -235.53686523 126.05004883 C-240.58578548 130.45163948 -245.33524688 135.13629926 -250.08984375 139.8515625 C-250.55670656 140.31434978 -251.02356937 140.77713707 -251.50457954 141.25394821 C-253.9752965 143.70397023 -256.44283894 146.15714025 -258.90795898 148.61279297 C-260.92010862 150.61609781 -262.9380931 152.61322012 -264.96166992 154.60498047 C-287.25778317 176.55833437 -304.98903644 199.55387646 -307 232 C-306.87580402 234.76336055 -306.4804362 237.26151366 -306 240 C-306.04125 241.19625 -306.0825 242.3925 -306.125 243.625 C-306.32034515 263.6283432 -295.89330864 284.45148658 -282.36206055 298.7824707 C-266.01360341 315.31073558 -246.14054392 323.85539582 -223 326 C-222.22398437 326.07347656 -221.44796875 326.14695312 -220.6484375 326.22265625 C-197.65563774 327.24357207 -175.60306893 316.39059883 -158.7421875 301.61328125 C-156.21925936 299.2089523 -154.11579349 296.76073931 -152 294 C-149.44804154 291.31372793 -146.8773493 288.9003463 -144 286.5625 C-140.92607461 284.0824398 -140.92607461 284.0824398 -138.5 281 C-136 278 -136 278 -133.0625 275.5625 C-130.70465587 273.58961001 -128.98434117 271.89324355 -127.0625 269.5625 C-125.04819 267.12854209 -123.0034519 265.06756764 -120.5625 263.0625 C-118.08157966 261.00672653 -115.95760469 258.89548776 -113.875 256.4375 C-108.6386716 250.26224375 -102.75924022 244.68129561 -97 239 C-98.36445801 235.94858607 -99.90704737 233.84202098 -102.26416016 231.48187256 C-102.93715149 230.80324158 -103.61014282 230.1246106 -104.30352783 229.42541504 C-105.04125427 228.69173706 -105.77898071 227.95805908 -106.5390625 227.20214844 C-107.31642761 226.42127869 -108.09379272 225.64040894 -108.89471436 224.83587646 C-111.46646546 222.25531995 -114.04546675 219.68215078 -116.625 217.109375 C-118.41126322 215.32176507 -120.19722942 213.53385829 -121.98291016 211.7456665 C-125.72559598 208.00003126 -129.47178222 204.25794574 -133.22070312 200.51855469 C-137.5586317 196.19152584 -141.88928679 191.85731751 -146.21626472 187.51934028 C-150.37749645 183.34795363 -154.54431875 179.18218688 -158.71356201 175.01880646 C-160.48853589 173.24517078 -162.26201419 171.47003715 -164.03399658 169.69341278 C-166.50485026 167.21750732 -168.98197678 164.74805812 -171.4609375 162.28027344 C-172.19866394 161.53849854 -172.93639038 160.79672363 -173.69647217 160.0324707 C-174.3694635 159.36511902 -175.04245483 158.69776733 -175.73583984 158.01019287 C-176.32134613 157.42544064 -176.90685242 156.8406884 -177.51010132 156.2382164 C-178.93348162 154.78694718 -178.93348162 154.78694718 -181 155 C-181.24298828 154.41919678 -181.48597656 153.83839355 -181.73632812 153.23999023 C-183.23194765 150.58884859 -184.89869544 149.13080209 -187.21875 147.16015625 C-191.66253596 143.26065415 -195.87532733 139.20049109 -200.03125 134.99609375 C-200.63928467 134.38238922 -201.24731934 133.76868469 -201.8737793 133.13638306 C-204.39857236 130.58454811 -206.91903335 128.02850606 -209.43554688 125.46850586 C-211.29648898 123.57757141 -213.16343654 121.69273745 -215.03125 119.80859375 C-215.60202271 119.22436142 -216.17279541 118.64012909 -216.76086426 118.03819275 C-218.13641853 116.65383865 -219.56376275 115.32129043 -221 114 C-223.17939784 113.7749896 -223.17939784 113.7749896 -224.8828125 115.72265625 Z " fill="#F86900" transform="translate(649,339)"/>
<path d="M0 0 C1.28405228 -0.00281982 2.56810455 -0.00563965 3.8910675 -0.00854492 C5.3288423 -0.00659984 6.76661696 -0.00455163 8.20439148 -0.00241089 C9.70948326 -0.00376537 11.21457471 -0.00554557 12.71966553 -0.00772095 C16.83400786 -0.01230648 20.94832528 -0.01049677 25.06266809 -0.00734186 C29.40631186 -0.00480416 33.74995355 -0.00716156 38.09359741 -0.00872803 C45.43554563 -0.01055393 52.77748384 -0.00814113 60.11943054 -0.00338745 C68.48634082 0.00196899 76.85322639 0.00035859 85.22013599 -0.00521386 C92.46579673 -0.00983911 99.71145026 -0.01034832 106.95711201 -0.00777519 C111.97334537 -0.00599656 116.98956263 -0.00647481 122.00579417 -0.01145196 C147.394532 -0.01618297 172.70668523 0.5498263 198.10160828 1.12698364 C198.10160828 69.43698364 198.10160828 137.74698364 198.10160828 208.12698364 C183.91160828 208.45698364 169.72160828 208.78698364 155.10160828 209.12698364 C154.44160828 209.78698364 153.78160828 210.44698364 153.10160828 211.12698364 C153.10160828 210.13698364 153.10160828 209.14698364 153.10160828 208.12698364 C136.60160828 208.12698364 120.10160828 208.12698364 103.10160828 208.12698364 C103.10160828 169.51698364 103.10160828 130.90698364 103.10160828 91.12698364 C66.80160828 91.12698364 30.50160828 91.12698364 -6.89839172 91.12698364 C-6.91901672 76.29760864 -6.93964172 61.46823364 -6.96089172 46.18948364 C-6.97454773 39.15519043 -6.97454773 39.15519043 -6.98847961 31.97879028 C-6.99299622 26.27041626 -6.99299622 26.27041626 -6.99383545 23.60157776 C-6.99537518 21.72995262 -6.9989007 19.85832851 -7.00396729 17.98670959 C-7.01124331 15.15853135 -7.01229919 12.33041393 -7.01191711 9.50222778 C-7.01551522 8.66267327 -7.01911333 7.82311876 -7.02282047 6.95812321 C-7.01038232 0.12217972 -6.72931695 0.0022616 0 0 Z " fill="#FC8600" transform="translate(58.89839172363281,699.8730163574219)"/>
<path d="M0 0 C31.35 0 62.7 0 95 0 C95.04030303 51.36845617 95.04030303 51.36845617 95.04882812 72.82226562 C95.05477186 87.66121769 95.06177558 102.5001641 95.07543945 117.33911133 C95.08538412 128.14412616 95.09185291 138.94913642 95.09408849 149.7541557 C95.09539597 155.4791448 95.09848415 161.20412083 95.10573006 166.92910576 C95.11248685 172.31094088 95.11461766 177.69275745 95.11310768 183.07459641 C95.11338416 185.05601032 95.11539129 187.03742481 95.11920547 189.01883507 C95.12413741 191.71163087 95.12300015 194.40435546 95.12025452 197.09715271 C95.12462378 198.28925005 95.12462378 198.28925005 95.12908131 199.50543016 C95.11412121 204.88587879 95.11412121 204.88587879 94 206 C91.38237266 206.09780042 88.79114693 206.12994511 86.17308044 206.12025452 C85.34326489 206.12110894 84.51344934 206.12196337 83.65848786 206.12284368 C80.85620681 206.12450103 78.05398459 206.11897297 75.25170898 206.11352539 C73.25158693 206.11324355 71.25146477 206.1134012 69.25134277 206.1139679 C63.80321965 206.11425598 58.35511834 206.10835745 52.9070003 206.10139394 C47.22015158 206.09516226 41.53330242 206.09455675 35.84645081 206.09336853 C25.06940041 206.09025466 14.2923601 206.08204053 3.51531416 206.07201904 C-8.75049607 206.06085962 -21.01630678 206.05534789 -33.28212082 206.05032361 C-58.52141949 206.03985796 -83.76070918 206.02225745 -109 206 C-109.15357177 194.54356718 -109.30175354 183.08707874 -109.4429636 171.63048649 C-109.50869721 166.31131727 -109.57632064 160.99218579 -109.64819336 155.6730957 C-109.71742491 150.54441009 -109.78178337 145.41568479 -109.84269524 140.28689384 C-109.86685856 138.32556354 -109.89280822 136.36425444 -109.92053413 134.40297127 C-109.95892843 131.66589809 -109.99109521 128.92881984 -110.02172852 126.19165039 C-110.03467453 125.37238068 -110.04762054 124.55311096 -110.06095886 123.70901489 C-110.07901761 121.80598713 -110.04523572 119.90257576 -110 118 C-109 117 -109 117 -107.20589352 116.87695217 C-106.02369401 116.87833486 -106.02369401 116.87833486 -104.81761169 116.87974548 C-103.91592255 116.87837082 -103.0142334 116.87699615 -102.08522034 116.87557983 C-100.58981972 116.88097275 -100.58981972 116.88097275 -99.06420898 116.88647461 C-98.02043091 116.88632858 -96.97665283 116.88618256 -95.90124512 116.8860321 C-92.43284057 116.88673174 -88.96448897 116.89452647 -85.49609375 116.90234375 C-83.09855682 116.90420775 -80.7010195 116.90563174 -78.30348206 116.90663147 C-71.97904416 116.91045806 -65.65462906 116.92028954 -59.3302002 116.93133545 C-52.88224598 116.94154655 -46.43428809 116.94612844 -39.98632812 116.95117188 C-27.324209 116.96191168 -14.66210571 116.97879881 -2 117 C-0.79852906 114.59705813 -0.86225051 113.07799484 -0.84178162 110.39364624 C-0.8319928 109.4232692 -0.82220398 108.45289215 -0.81211853 107.45310974 C-0.80636307 106.38496536 -0.8006076 105.31682098 -0.79467773 104.21630859 C-0.78477814 103.09435593 -0.77487854 101.97240326 -0.76467896 100.81645203 C-0.73299473 97.09380226 -0.70827916 93.37113972 -0.68359375 89.6484375 C-0.6630302 87.07296408 -0.6420339 84.49749408 -0.62062073 81.92202759 C-0.57099405 75.82702858 -0.5257448 69.73201135 -0.48259836 63.63696349 C-0.42839999 56.01835691 -0.36753822 48.39980547 -0.30664062 40.78125 C-0.19801121 27.18754233 -0.09948737 13.59378448 0 0 Z " fill="#FD8F00" transform="translate(162,116)"/>
<path d="M0 0 C4.55307638 0.00259418 9.10615111 0.0001684 13.65922761 -0.00138617 C21.2549091 -0.00318136 28.85058071 -0.0008657 36.44626069 0.00395441 C45.2254472 0.00946117 54.00461071 0.00757811 62.78379673 0.00212801 C70.38023098 -0.00239782 77.97665831 -0.00305836 85.57309347 -0.00043333 C90.08693839 0.00112361 94.60077242 0.00133779 99.11461663 -0.00196981 C103.32486722 -0.00484303 107.53508756 -0.00288322 111.74533486 0.00292444 C113.29138728 0.00425206 114.83744223 0.0038579 116.38349366 0.00166178 C118.48320166 -0.00104791 120.58281092 0.00232825 122.68251252 0.00734186 C124.44720525 0.0079074 124.44720525 0.0079074 126.24754834 0.00848436 C128.86252046 0.1343255 128.86252046 0.1343255 129.86252046 1.1343255 C129.99298889 3.82593401 130.05920553 6.49324996 130.08371186 9.1865716 C130.09521775 10.03045938 130.10672364 10.87434717 130.1185782 11.74380732 C130.15542013 14.54842153 130.18497334 17.35305861 130.21408296 20.157763 C130.23718625 22.09971179 130.26057646 24.04165718 130.28424287 25.98359919 C130.33277584 30.06083019 130.37769371 34.1380814 130.42013764 38.21538019 C130.47490227 43.44687522 130.5387389 48.67821279 130.60531259 53.90956926 C130.65535353 57.92260618 130.70049404 61.93568675 130.74415421 65.9487977 C130.76575091 67.87776832 130.7889029 69.80672215 130.81361985 71.73565531 C130.84744469 74.43150773 130.87466247 77.12734768 130.90011811 79.82329035 C130.91149308 80.62444773 130.92286805 81.42560511 130.93458772 82.25103998 C130.95923991 85.48864283 130.89440864 88.03866096 129.86252046 91.1343255 C93.23252046 91.1343255 56.60252046 91.1343255 18.86252046 91.1343255 C18.94630952 99.49647394 19.03009858 107.85862238 19.11642671 116.47416925 C19.17355129 122.42723779 19.23004199 128.38030967 19.2856133 134.33339262 C19.35777913 142.05507252 19.43146557 149.77672837 19.51071382 157.49833918 C19.58011458 164.26096684 19.64429298 171.02362524 19.70521569 177.78633547 C19.72938414 180.37286367 19.75533454 182.95937582 19.78305459 185.5458684 C19.82143348 189.15467424 19.85360769 192.76348399 19.88424897 196.37236261 C19.89719499 197.45345301 19.910141 198.5345434 19.92347932 199.64839411 C19.93403855 201.11451891 19.93403855 201.11451891 19.94481111 202.61026239 C19.95310724 203.46476449 19.96140338 204.31926659 19.96995091 205.19966269 C19.86252046 207.1343255 19.86252046 207.1343255 18.86252046 208.1343255 C17.15479688 208.22146382 15.44353397 208.24132558 13.73361421 208.23198175 C12.18190522 208.22714777 12.18190522 208.22714777 10.59884858 208.22221613 C9.5102353 208.21383722 8.42162202 208.20545832 7.30002046 208.1968255 C5.66129975 208.19005793 5.66129975 208.19005793 3.98947358 208.18315363 C1.28043551 208.17132377 -1.42849554 208.15484094 -4.13747954 208.1343255 C-4.46747954 209.1243255 -4.79747954 210.1143255 -5.13747954 211.1343255 C-6.78747954 210.8043255 -8.43747954 210.4743255 -10.13747954 210.1343255 C-10.13747954 209.8043255 -10.13747954 209.4743255 -10.13747954 209.1343255 C-30.59747954 208.8043255 -51.05747954 208.4743255 -72.13747954 208.1343255 C-73.04808986 203.58127392 -73.27510067 199.463547 -73.25773406 194.86435175 C-73.25858849 194.03520205 -73.25944291 193.20605235 -73.26032323 192.3517769 C-73.26196926 189.57573916 -73.25647098 186.79976196 -73.25100493 184.0237298 C-73.25072285 182.03286983 -73.25088122 180.04200976 -73.25144744 178.05114985 C-73.25173457 172.64665051 -73.24585133 167.24217333 -73.23887348 161.83767915 C-73.23262605 156.18955822 -73.23203504 150.54143679 -73.23084807 144.89331293 C-73.22773887 134.19785242 -73.21953099 123.50240211 -73.20949858 112.8069461 C-73.19832473 100.63052147 -73.19282378 88.45409636 -73.18780315 76.27766788 C-73.17734805 51.22988143 -73.15975653 26.18210404 -73.13747954 1.1343255 C-48.75308357 0.31620028 -24.39730363 -0.01834813 0 0 Z " fill="#F55D00" transform="translate(841.1374795436859,699.865674495697)"/>
<path d="M0 0 C30.36 0 60.72 0 92 0 C92 38.61 92 77.22 92 117 C129.29 117 166.58 117 205 117 C205.0309375 138.7490625 205.0309375 138.7490625 205.0625 160.9375 C205.071604 165.52261475 205.08070801 170.10772949 205.09008789 174.83178711 C205.09460449 180.41320801 205.09460449 180.41320801 205.09544373 183.02272034 C205.09698342 184.85267886 205.10050888 186.68263634 205.10557556 188.5125885 C205.11285186 191.27786025 205.11390746 194.04306978 205.11352539 196.80834961 C205.1171235 197.62916739 205.12072161 198.44998518 205.12442875 199.29567623 C205.11402634 204.88597366 205.11402634 204.88597366 204 206 C201.38237266 206.09780042 198.79114693 206.12994511 196.17308044 206.12025452 C195.34326489 206.12110894 194.51344934 206.12196337 193.65848786 206.12284368 C190.85620681 206.12450103 188.05398459 206.11897297 185.25170898 206.11352539 C183.25158693 206.11324355 181.25146477 206.1134012 179.25134277 206.1139679 C173.80321965 206.11425598 168.35511834 206.10835745 162.9070003 206.10139394 C157.22015158 206.09516226 151.53330242 206.09455675 145.84645081 206.09336853 C135.06940041 206.09025466 124.2923601 206.08204053 113.51531416 206.07201904 C101.24950393 206.06085962 88.98369322 206.05534789 76.71787918 206.05032361 C51.47858051 206.03985796 26.23929082 206.02225745 1 206 C-0.57559733 202.84880534 -0.13304309 199.4741891 -0.12025452 196.01486206 C-0.12110894 195.18010853 -0.12196337 194.345355 -0.12284368 193.48530591 C-0.12449824 190.6723114 -0.11897749 187.85937578 -0.11352539 185.04638672 C-0.11324349 183.03626507 -0.11340131 181.02614332 -0.1139679 179.01602173 C-0.11425575 173.5452313 -0.10836096 168.07446263 -0.10139394 162.60367727 C-0.0951584 156.89147647 -0.09455644 151.17927521 -0.09336853 145.46707153 C-0.09025581 134.6440137 -0.08204321 123.82096592 -0.07201904 112.99791253 C-0.0587703 98.37708658 -0.05335752 83.7562579 -0.04751682 69.13542747 C-0.03810329 46.09027745 -0.01818397 23.04514864 0 0 Z " fill="#F86A00" transform="translate(768,116)"/>
<path d="M0 0 C0.99 0.85722656 1.98 1.71445312 3 2.59765625 C15.828198 13.90131469 15.828198 13.90131469 20 21 C19.67 21.99 19.34 22.98 19 24 C17.70376621 22.42040347 16.41318673 20.83616587 15.125 19.25 C14.40570312 18.36828125 13.68640625 17.4865625 12.9453125 16.578125 C11.31557412 14.41823076 10.09215995 12.460234 9 10 C8.34 10 7.68 10 7 10 C5.30036826 8.36696371 3.63924223 6.69364709 2 5 C-9.21091386 -5.36966612 -21.47539412 -12.55508436 -35.75 -17.9375 C-36.4932251 -18.22004639 -37.2364502 -18.50259277 -38.00219727 -18.79370117 C-48.8715382 -22.67042881 -59.72874548 -23.32420672 -71.1875 -23.25 C-72.39341797 -23.25773437 -73.59933594 -23.26546875 -74.84179688 -23.2734375 C-83.56430381 -23.25438232 -90.94149735 -22.3565536 -99 -19 C-100.76648919 -18.60504223 -102.53783743 -18.23143859 -104.3125 -17.875 C-109.57494016 -16.58531331 -114.22814546 -14.70167462 -119.0625 -12.3125 C-119.99799683 -11.85883057 -119.99799683 -11.85883057 -120.95239258 -11.39599609 C-131.10457212 -6.19893806 -139.56197935 1.1145405 -147.52294922 9.18237305 C-148.40409897 10.06308472 -149.28524872 10.94379639 -150.19309998 11.85119629 C-152.57631649 14.23612759 -154.95273532 16.62745222 -157.3262229 19.02204108 C-159.82611367 21.54089168 -162.33470135 24.05105275 -164.84231567 26.56221008 C-169.58071168 31.30988115 -174.31142163 36.06513291 -179.0393163 40.82325917 C-184.40771714 46.225243 -189.78467504 51.61867478 -195.16237235 57.01140153 C-204.3565907 66.23160162 -213.54445639 75.45808248 -222.72511292 84.69178772 C-226.47823137 88.46641051 -230.23338419 92.23884402 -234 96 C-234.52464844 96.52464844 -235.04929687 97.04929687 -235.58984375 97.58984375 C-243.0625 105.0625 -243.0625 105.0625 -244.56591797 106.56567383 C-245.88046283 107.88044248 -247.19417922 109.19603931 -248.5078125 110.51171875 C-250.28934264 112.29045652 -252.07549094 114.06361123 -253.8671875 115.83203125 C-259.03298299 120.94516654 -264.08967694 126.035127 -268.6953125 131.671875 C-269.12585938 132.11015625 -269.55640625 132.5484375 -270 133 C-270.66 133 -271.32 133 -272 133 C-272.20625 133.556875 -272.4125 134.11375 -272.625 134.6875 C-274.15811063 137.26591333 -276.02297109 138.73759879 -278.35546875 140.58203125 C-280.7035859 142.60665482 -282.59507252 144.93836233 -284.57421875 147.31640625 C-287.13415012 150.33922932 -289.9976432 153.05599245 -292.87890625 155.76953125 C-297.7522462 160.45792471 -301.40683441 165.29436892 -305 171 C-305.46921875 171.66257812 -305.9384375 172.32515625 -306.421875 173.0078125 C-324.04652091 197.9286828 -329.05541085 228.25948913 -323.96875 258.0390625 C-318.66298899 286.50819753 -302.6670747 310.4038291 -279 327 C-272.34475718 331.44983978 -265.34674576 334.84341342 -258 338 C-260.86874545 339.21047064 -261.98207464 339.00655056 -264.9609375 337.91796875 C-293.17174911 323.61889605 -313.94718133 301.03618245 -324.1953125 270.8359375 C-326.96823407 261.06340808 -328.53783702 251.13870039 -329 241 C-329.04125 240.21882813 -329.0825 239.43765625 -329.125 238.6328125 C-329.95263626 207.90681634 -317.19483209 178.71509476 -297 156 C-294.4290655 153.35070611 -291.82247527 150.75276586 -289.1640625 148.19140625 C-286.97111701 146.07971423 -286.97111701 146.07971423 -285.3359375 143.71484375 C-284.89507812 143.14894531 -284.45421875 142.58304688 -284 142 C-283.34 142 -282.68 142 -282 142 C-281.74593636 141.42075807 -281.49187271 140.84151613 -281.23011017 140.24472141 C-279.86147255 137.74721326 -278.33569887 136.09240884 -276.3182373 134.0844574 C-275.55269028 133.3176062 -274.78714325 132.550755 -273.99839783 131.76066589 C-272.73752098 130.51293144 -272.73752098 130.51293144 -271.45117188 129.23999023 C-270.56651749 128.35665009 -269.6818631 127.47330994 -268.770401 126.5632019 C-266.84809034 124.64515572 -264.92406756 122.72903393 -262.99684143 120.81594658 C-259.94982651 117.79121636 -256.90993249 114.75939682 -253.87097168 111.72657776 C-249.06417385 106.93115568 -244.25272582 102.14043073 -239.43922949 97.35173327 C-230.81697646 88.77382428 -222.20030288 80.19031943 -213.58883524 71.60158306 C-210.56630935 68.58746659 -207.5409979 65.57618212 -204.5134201 62.56714046 C-202.19000249 60.25685966 -199.86970548 57.94344751 -197.54882812 55.63061523 C-196.70824356 54.79676804 -195.867659 53.96292084 -195.00160217 53.10380554 C-194.23605515 52.33977417 -193.47050812 51.5757428 -192.6817627 50.78855896 C-191.68182659 49.793902 -191.68182659 49.793902 -190.66168976 48.77915096 C-188.81489205 46.89843067 -188.81489205 46.89843067 -187 44 C-186.34 44 -185.68 44 -185 44 C-184.67 43.01 -184.34 42.02 -184 41 C-183.34 41 -182.68 41 -182 41 C-182 40.34 -182 39.68 -182 39 C-181.34 39 -180.68 39 -180 39 C-179.67 38.01 -179.34 37.02 -179 36 C-176.5625 33.3125 -176.5625 33.3125 -174 31 C-173.34 31 -172.68 31 -172 31 C-171.6596875 30.17242187 -171.6596875 30.17242187 -171.3125 29.328125 C-169.61274074 26.31307583 -167.45195184 24.18769631 -165 21.75 C-164.113125 20.85796875 -163.22625 19.9659375 -162.3125 19.046875 C-160 17 -160 17 -158 17 C-157.7628125 16.43796875 -157.525625 15.8759375 -157.28125 15.296875 C-151.60131522 5.11455289 -139.62598812 -2.74310772 -130 -9 C-129.34 -9.66 -128.68 -10.32 -128 -11 C-86.17769341 -33.71329898 -36.59250806 -32.07562035 0 0 Z " fill="#F97D00" transform="translate(649,339)"/>
<path d="M0 0 C0.66 0.33 1.32 0.66 2 1 C1.67 30.04 1.34 59.08 1 89 C35.98 89 70.96 89 107 89 C107 89.66 107 90.32 107 91 C71.36 91 35.72 91 -1 91 C-1.020625 76.170625 -1.04125 61.34125 -1.0625 46.0625 C-1.07615601 39.02820679 -1.07615601 39.02820679 -1.09008789 31.85180664 C-1.09460449 26.14343262 -1.09460449 26.14343262 -1.09544373 23.47459412 C-1.09698346 21.60296898 -1.10050898 19.73134486 -1.10557556 17.85972595 C-1.11285159 15.0315477 -1.11390747 12.20343029 -1.11352539 9.37524414 C-1.1171235 8.53568963 -1.12072161 7.69613512 -1.12442875 6.83113956 C-1.11402634 1.11402634 -1.11402634 1.11402634 0 0 Z " fill="#FB9C00" transform="translate(53,700)"/>
<path d="M0 0 C0.99 0.495 0.99 0.495 2 1 C1.41863785 1.57247971 0.8372757 2.14495941 0.23829651 2.73478699 C-5.28776646 8.18009238 -10.80367544 13.63540393 -16.30895901 19.10171032 C-19.13838742 21.91042538 -21.97134136 24.71536561 -24.81323242 27.51147461 C-27.56502113 30.21921715 -30.30639557 32.93713697 -33.04136848 35.66185951 C-34.07701487 36.69021838 -35.11612422 37.71510401 -36.15902519 38.73610497 C-54.92523846 57.12441092 -67.35679639 80.48754179 -69 107 C-68.87580402 109.76336055 -68.4804362 112.26151366 -68 115 C-68.03165581 116.93100448 -68.06337886 118.86200902 -68.09765625 120.79296875 C-67.93779662 124.40579648 -67.14469144 127.89237219 -66.4453125 131.43359375 C-65.94397503 134.32288078 -65.8417852 137.0730262 -66 140 C-72.38157028 133.61842972 -71.84345295 116.37066299 -72 108 C-71.7707667 82.16213235 -59.14446536 60.33766991 -42 42 C-40.74414159 40.56761531 -39.49372312 39.13043418 -38.25 37.6875 C-35.603556 34.66036104 -32.96931445 31.71480178 -30 29 C-29.34 29 -28.68 29 -28 29 C-27.7525 28.4225 -27.505 27.845 -27.25 27.25 C-25.50294488 24.10530078 -23.18252648 22.00634198 -20.453125 19.68359375 C-13.23684988 13.53125663 -6.65827528 6.74243887 0 0 Z " fill="#FA7C00" transform="translate(412,464)"/>
<path d="M0 0 C3.10457005 1.55228503 3.38093425 4.13283475 4.625 7.3125 C11.82677151 24.83359593 24.12092576 36.86715071 39 48 C38.01 48.33 37.02 48.66 36 49 C20.06153759 39.47321507 5.9010613 21.49560887 0 4 C0 2.68 0 1.36 0 0 Z " fill="#FB7A00" transform="translate(346,604)"/>
<path d="M0 0 C2.87261685 1.30238972 4.92743009 2.68114757 7.14453125 4.91748047 C8.02564575 5.79882156 8.02564575 5.79882156 8.92456055 6.69796753 C9.54758057 7.33131012 10.17060059 7.96465271 10.8125 8.6171875 C11.46323486 9.27075226 12.11396973 9.92431702 12.78442383 10.59768677 C14.86103161 12.68546948 16.93058492 14.78009004 19 16.875 C20.39276678 18.27780298 21.78599101 19.68015194 23.1796875 21.08203125 C25.74113088 23.65979273 28.29993397 26.24011144 30.85546875 28.82373047 C33.22935064 31.22351851 35.60978514 33.61645757 38 36 C34.02890071 35.45541143 32.25934584 33.59622644 29.515625 30.7734375 C28.66226562 29.90589844 27.80890625 29.03835938 26.9296875 28.14453125 C25.60324219 26.77361328 25.60324219 26.77361328 24.25 25.375 C18.89613761 19.88609954 13.57910466 14.45709908 7.73144531 9.48999023 C4.98618172 7.12756163 2.46768959 4.65276631 0 2 C0 1.34 0 0.68 0 0 Z " fill="#FB7700" transform="translate(456,480)"/>
<path d="M0 0 C4.20632764 0.15022599 7.12309593 3.21230226 10 6 C10.89273073 7.02651171 11.76843087 8.06812547 12.625 9.125 C14.64136979 11.5658687 16.3898554 13.2599036 19 15 C18.67 15.99 18.34 16.98 18 18 C13.05 13.05 8.1 8.1 3 3 C-0.91731018 4.85529281 -0.91731018 4.85529281 -4 7 C-2.92598892 4.08482708 -2.22189824 2.22189824 0 0 Z " fill="#FC7D00" transform="translate(425,451)"/>
<path d="M0 0 C1.65 0 3.3 0 5 0 C5 0.33 5 0.66 5 1 C3.35 1 1.7 1 0 1 C0 0.67 0 0.34 0 0 Z " fill="#D04C00" transform="translate(847,909)"/>
<path d="M0 0 C1.65 0 3.3 0 5 0 C5 0.33 5 0.66 5 1 C3.35 1 1.7 1 0 1 C0 0.67 0 0.34 0 0 Z " fill="#C84B00" transform="translate(769,909)"/>
<path d="M0 0 C4 1 4 1 4 1 Z " fill="#DA5200" transform="translate(823,909)"/>
<path d="M0 0 C4 1 4 1 4 1 Z " fill="#E57000" transform="translate(223,909)"/>
<path d="M0 0 C3 1 3 1 3 1 Z " fill="#C64800" transform="translate(855,909)"/>
<path d="M0 0 C3 1 3 1 3 1 Z " fill="#DB5400" transform="translate(816,909)"/>
<path d="M0 0 C3 1 3 1 3 1 Z " fill="#DB5300" transform="translate(791,909)"/>
<path d="M0 0 C3 1 3 1 3 1 Z " fill="#E36E00" transform="translate(231,909)"/>
<path d="M0 0 C3 1 3 1 3 1 Z " fill="#E87200" transform="translate(215,909)"/>
<path d="M0 0 C3 1 3 1 3 1 Z " fill="#E97400" transform="translate(207,909)"/>
<path d="M0 0 C0.99 0.495 0.99 0.495 2 1 C1.01 1.495 1.01 1.495 0 2 C0 1.34 0 0.68 0 0 Z " fill="#E97300" transform="translate(204,909)"/>
<path d="M0 0 C3 1 3 1 3 1 Z " fill="#E77500" transform="translate(199,909)"/>
<path d="M0 0 C3 1 3 1 3 1 Z " fill="#E77400" transform="translate(191,909)"/>
<path d="" fill="#FE8600" transform="translate(0,0)"/>
<path d="" fill="#DC5300" transform="translate(0,0)"/>
<path d="" fill="#FC8F00" transform="translate(0,0)"/>
<path d="M0 0 C3 1 3 1 3 1 Z " fill="#E46E00" transform="translate(830,114)"/>
<path d="M0 0 C2 1 2 1 2 1 Z " fill="#D44F00" transform="translate(843,909)"/>
<path d="M0 0 C2 1 2 1 2 1 Z " fill="#E97200" transform="translate(196,909)"/>
<path d="" fill="#E27E00" transform="translate(0,0)"/>
<path d="" fill="#CF4E00" transform="translate(0,0)"/>
<path d="" fill="#DF5600" transform="translate(0,0)"/>
<path d="" fill="#E05600" transform="translate(0,0)"/>
<path d="" fill="#E35700" transform="translate(0,0)"/>
<path d="M0 0 C2 1 2 1 2 1 Z " fill="#EB6900" transform="translate(368,669)"/>
<path d="" fill="#DA5400" transform="translate(0,0)"/>
<path d="" fill="#DB5500" transform="translate(0,0)"/>
<path d="M0 0 C2 1 2 1 2 1 Z " fill="#E65900" transform="translate(894,323)"/>
<path d="M0 0 C2 1 2 1 2 1 Z " fill="#E96800" transform="translate(561,312)"/>
<path d="" fill="#FC9001" transform="translate(0,0)"/>
<path d="" fill="#F78C00" transform="translate(0,0)"/>
<path d="M0 0 C2 1 2 1 2 1 Z " fill="#D66300" transform="translate(855,114)"/>
<path d="" fill="#000000" transform="translate(0,0)"/>
<path d="" fill="#000000" transform="translate(0,0)"/>
<path d="" fill="#010000" transform="translate(0,0)"/>
<path d="" fill="#3D1D00" transform="translate(0,0)"/>
<path d="" fill="#020100" transform="translate(0,0)"/>
<path d="" fill="#2D1400" transform="translate(0,0)"/>
<path d="" fill="#D65101" transform="translate(0,0)"/>
<path d="" fill="#D55000" transform="translate(0,0)"/>
<path d="" fill="#DB5400" transform="translate(0,0)"/>
<path d="" fill="#DC5400" transform="translate(0,0)"/>
<path d="" fill="#DA5200" transform="translate(0,0)"/>
<path d="" fill="#DA5200" transform="translate(0,0)"/>
<path d="" fill="#DC5200" transform="translate(0,0)"/>
<path d="" fill="#DB5400" transform="translate(0,0)"/>
<path d="" fill="#D44F00" transform="translate(0,0)"/>
<path d="" fill="#D65200" transform="translate(0,0)"/>
<path d="" fill="#CA4D00" transform="translate(0,0)"/>
<path d="" fill="#D36500" transform="translate(0,0)"/>
<path d="" fill="#DB6800" transform="translate(0,0)"/>
<path d="" fill="#E36D00" transform="translate(0,0)"/>
<path d="" fill="#E57100" transform="translate(0,0)"/>
<path d="" fill="#E87000" transform="translate(0,0)"/>
<path d="" fill="#E77100" transform="translate(0,0)"/>
<path d="" fill="#E36F00" transform="translate(0,0)"/>
<path d="" fill="#EA7700" transform="translate(0,0)"/>
<path d="" fill="#DC5400" transform="translate(0,0)"/>
<path d="" fill="#ED7B00" transform="translate(0,0)"/>
<path d="" fill="#F17801" transform="translate(0,0)"/>
<path d="" fill="#F58502" transform="translate(0,0)"/>
<path d="" fill="#F88101" transform="translate(0,0)"/>
<path d="" fill="#F88401" transform="translate(0,0)"/>
<path d="" fill="#080000" transform="translate(0,0)"/>
<path d="" fill="#FB8400" transform="translate(0,0)"/>
<path d="" fill="#FC8600" transform="translate(0,0)"/>
<path d="" fill="#E65300" transform="translate(0,0)"/>
<path d="" fill="#DA7900" transform="translate(0,0)"/>
<path d="" fill="#D85300" transform="translate(0,0)"/>
<path d="" fill="#DD5300" transform="translate(0,0)"/>
<path d="" fill="#E45400" transform="translate(0,0)"/>
<path d="" fill="#E15600" transform="translate(0,0)"/>
<path d="" fill="#F38D00" transform="translate(0,0)"/>
<path d="" fill="#CD4E00" transform="translate(0,0)"/>
<path d="" fill="#CB4E00" transform="translate(0,0)"/>
<path d="" fill="#E36001" transform="translate(0,0)"/>
<path d="" fill="#F26800" transform="translate(0,0)"/>
<path d="" fill="#F16500" transform="translate(0,0)"/>
<path d="" fill="#5D2100" transform="translate(0,0)"/>
<path d="" fill="#521D00" transform="translate(0,0)"/>
<path d="" fill="#3C1400" transform="translate(0,0)"/>
<path d="" fill="#EC6A00" transform="translate(0,0)"/>
<path d="" fill="#F36E00" transform="translate(0,0)"/>
<path d="" fill="#E96900" transform="translate(0,0)"/>
<path d="" fill="#E76600" transform="translate(0,0)"/>
<path d="" fill="#DC5300" transform="translate(0,0)"/>
<path d="" fill="#E96B00" transform="translate(0,0)"/>
<path d="" fill="#F66F00" transform="translate(0,0)"/>
<path d="" fill="#F66F00" transform="translate(0,0)"/>
<path d="" fill="#F26300" transform="translate(0,0)"/>
<path d="" fill="#1D0800" transform="translate(0,0)"/>
<path d="" fill="#F26000" transform="translate(0,0)"/>
<path d="" fill="#F17100" transform="translate(0,0)"/>
<path d="" fill="#E46800" transform="translate(0,0)"/>
<path d="" fill="#F16300" transform="translate(0,0)"/>
<path d="" fill="#F36400" transform="translate(0,0)"/>
<path d="" fill="#060000" transform="translate(0,0)"/>
<path d="" fill="#0B0000" transform="translate(0,0)"/>
<path d="" fill="#F26700" transform="translate(0,0)"/>
<path d="" fill="#F36900" transform="translate(0,0)"/>
<path d="" fill="#120200" transform="translate(0,0)"/>
<path d="" fill="#763600" transform="translate(0,0)"/>
<path d="" fill="#DB5600" transform="translate(0,0)"/>
<path d="" fill="#160500" transform="translate(0,0)"/>
<path d="" fill="#1E0E00" transform="translate(0,0)"/>
<path d="" fill="#361B00" transform="translate(0,0)"/>
<path d="" fill="#E05900" transform="translate(0,0)"/>
<path d="" fill="#492400" transform="translate(0,0)"/>
<path d="" fill="#883500" transform="translate(0,0)"/>
<path d="" fill="#E96100" transform="translate(0,0)"/>
<path d="" fill="#7A2E00" transform="translate(0,0)"/>
<path d="" fill="#AD4400" transform="translate(0,0)"/>
<path d="" fill="#954D00" transform="translate(0,0)"/>
<path d="" fill="#E96300" transform="translate(0,0)"/>
<path d="" fill="#E25600" transform="translate(0,0)"/>
<path d="" fill="#E65A00" transform="translate(0,0)"/>
<path d="" fill="#E95D00" transform="translate(0,0)"/>
<path d="" fill="#E85E00" transform="translate(0,0)"/>
<path d="" fill="#E37C00" transform="translate(0,0)"/>
<path d="" fill="#E66000" transform="translate(0,0)"/>
<path d="" fill="#DB5700" transform="translate(0,0)"/>
<path d="" fill="#E86800" transform="translate(0,0)"/>
<path d="" fill="#E76300" transform="translate(0,0)"/>
<path d="" fill="#E35900" transform="translate(0,0)"/>
<path d="" fill="#E45B00" transform="translate(0,0)"/>
<path d="" fill="#E75C00" transform="translate(0,0)"/>
<path d="" fill="#E65C00" transform="translate(0,0)"/>
<path d="" fill="#E55C00" transform="translate(0,0)"/>
<path d="" fill="#E65D00" transform="translate(0,0)"/>
<path d="" fill="#E45C00" transform="translate(0,0)"/>
<path d="" fill="#E25B00" transform="translate(0,0)"/>
<path d="" fill="#E15C00" transform="translate(0,0)"/>
<path d="" fill="#DE5800" transform="translate(0,0)"/>
<path d="" fill="#D75400" transform="translate(0,0)"/>
<path d="" fill="#FB9000" transform="translate(0,0)"/>
<path d="" fill="#FB9001" transform="translate(0,0)"/>
<path d="" fill="#F98E00" transform="translate(0,0)"/>
<path d="" fill="#FA9000" transform="translate(0,0)"/>
<path d="" fill="#F78E00" transform="translate(0,0)"/>
<path d="" fill="#FB8E01" transform="translate(0,0)"/>
<path d="" fill="#F88B00" transform="translate(0,0)"/>
<path d="" fill="#F88E00" transform="translate(0,0)"/>
<path d="" fill="#F78D01" transform="translate(0,0)"/>
<path d="" fill="#F58C00" transform="translate(0,0)"/>
<path d="" fill="#090000" transform="translate(0,0)"/>
<path d="" fill="#E16B00" transform="translate(0,0)"/>
<path d="" fill="#E66F00" transform="translate(0,0)"/>
<path d="" fill="#E46D00" transform="translate(0,0)"/>
<path d="" fill="#E46F00" transform="translate(0,0)"/>
<path d="" fill="#E37000" transform="translate(0,0)"/>
<path d="" fill="#D66A00" transform="translate(0,0)"/>
<path d="" fill="#CF7400" transform="translate(0,0)"/>
<path d="" fill="#DD7900" transform="translate(0,0)"/>
<path d="" fill="#E88400" transform="translate(0,0)"/>
<path d="" fill="#E88400" transform="translate(0,0)"/>
<path d="" fill="#E98600" transform="translate(0,0)"/>
<path d="" fill="#E88500" transform="translate(0,0)"/>
<path d="" fill="#E88500" transform="translate(0,0)"/>
<path d="" fill="#E48400" transform="translate(0,0)"/>
<path d="" fill="#C85D00" transform="translate(0,0)"/>
<path d="" fill="#2B1000" transform="translate(0,0)"/>
<path d="" fill="#060000" transform="translate(0,0)"/>
<path d="" fill="#6F3600" transform="translate(0,0)"/>
<path d="" fill="#000000" transform="translate(0,0)"/>
<path d="" fill="#2D1800" transform="translate(0,0)"/>
<path d="" fill="#000000" transform="translate(0,0)"/>
<path d="" fill="#000000" transform="translate(0,0)"/>
<path d="" fill="#000000" transform="translate(0,0)"/>
<path d="" fill="#000000" transform="translate(0,0)"/>
<path d="" fill="#000000" transform="translate(0,0)"/>
</svg>
